# xmcd
# Track frame offsets:
# 182
# 11970
# 28122
# 46822
# 58640
# 71567
# 81917
# 101577
# 119940
# 131042
# 145085
# 158600
# 175490
# 189117
#
# Disc length: 2693 seconds
# Revision: 0
# Processed by: cddbd v1.4PL0 Copyright (c) Steve Scherf et al.
# Submitted via: VisiTrax 2.9.5.180 - For more info visit www.synapsa.com
#
DISCID=c50a830e
DTITLE=Kathy Durkin - Kathy's Country
DYEAR=1990
DGENRE=Irsk
TTITLE0=Good God I had it good
TTITLE1=Daddy Frank
TTITLE2=Rose of my heart
TTITLE3=Too old to die young
TTITLE4=Mountian memories
TTITLE5=Louisiana saturday night
TTITLE6=Just across the Rio Grande
TTITLE7=He took your place
TTITLE8=It's a lovely world
TTITLE9=Down that river road
TTITLE10=Hold what you got
TTITLE11=Far away a light is burning
TTITLE12=Send me the pillow
TTITLE13=I wish that I could fall in love
EXTD=
EXTT0=
EXTT1=
EXTT2=
EXTT3=
EXTT4=
EXTT5=
EXTT6=
EXTT7=
EXTT8=
EXTT9=
EXTT10=
EXTT11=
EXTT12=
EXTT13=
PLAYORDER=
